<svg xmlns="http://www.w3.org/2000/svg" xmlns:xlink="http://www.w3.org/1999/xlink" preserveAspectRatio="xMidYMid meet" version="1.0" viewBox="0.0 -0.0 496.9 496.9" zoomAndPan="magnify" style="fill: rgb(0, 0, 0);" original_string_length="3416" width="377.77197265625034px" height="377.77197265625034px"><g id="__id1_sjvwhfv2y"><path d="M496.92,448.35c-12.38,0-22.41-10.04-22.41-22.41c0-12.38,10.04-22.41,22.41-22.41l0,0v-26.16l0,0 c-12.38,0-22.41-10.04-22.41-22.41c0-12.38,10.04-22.41,22.41-22.41l0,0v-26.17l0,0c-12.38,0-22.41-10.03-22.41-22.4 c0-12.4,10.04-22.41,22.41-22.41l0,0V235.4l0,0c-12.38,0-22.41-10.04-22.41-22.41c0-12.38,10.04-22.41,22.41-22.41l0,0v-26.16l0,0 c-12.38,0-22.41-10.04-22.41-22.41c0-12.38,10.04-22.41,22.41-22.41l0,0V93.4l0,0c-12.38,0-22.41-10.03-22.41-22.41 s10.04-22.41,22.41-22.41l0,0V22.42l0,0c-0.72,0-1.46-0.03-2.21-0.12c-0.72-0.07-1.45-0.17-2.17-0.33 c-1.43-0.28-2.84-0.71-4.19-1.28c-1.36-0.55-2.66-1.24-3.86-2.05c-0.62-0.41-1.21-0.84-1.78-1.31s-1.12-0.97-1.64-1.48 c-0.52-0.52-1.02-1.07-1.48-1.64s-0.9-1.16-1.31-1.76c-0.81-1.22-1.5-2.52-2.05-3.88c-0.57-1.35-1-2.76-1.29-4.19 c-0.14-0.72-0.24-1.45-0.33-2.17c-0.07-0.74-0.1-1.48-0.1-2.21l0,0h-26.16l0,0c0,12.38-10.04,22.41-22.41,22.41 c-12.38,0-22.41-10.03-22.41-22.41l0,0h-26.16l0,0c0,12.38-10.04,22.41-22.41,22.41S332.53,12.38,332.53,0l0,0h-26.16l0,0 c0,12.38-10.04,22.41-22.41,22.41c-12.4,0-22.41-10.03-22.41-22.41l0,0h-26.17l0,0c0,12.38-10.03,22.41-22.4,22.41 c-12.4,0-22.43-10.03-22.43-22.41l0,0h-26.16l0,0c0,12.38-10.03,22.41-22.41,22.41S119.57,12.38,119.57,0l0,0H93.4l0,0 c0,12.38-10.03,22.41-22.41,22.41S48.57,12.38,48.57,0l0,0H22.42l0,0c0,0.72-0.03,1.47-0.1,2.21c-0.09,0.72-0.19,1.45-0.33,2.17 c-0.29,1.43-0.72,2.84-1.29,4.19c-0.55,1.36-1.24,2.66-2.05,3.88c-0.41,0.6-0.85,1.19-1.31,1.76s-0.97,1.12-1.48,1.64 c-0.52,0.52-1.07,1.02-1.64,1.48c-0.57,0.47-1.16,0.9-1.78,1.31c-1.21,0.81-2.5,1.5-3.86,2.05c-1.34,0.57-2.76,1-4.19,1.28 c-0.72,0.15-1.45,0.26-2.17,0.33C1.47,22.38,0.73,22.42,0,22.42l0,0v26.16l0,0c12.38,0,22.41,10.04,22.41,22.41 C22.42,83.37,12.38,93.4,0,93.4l0,0v26.16l0,0c12.38,0,22.41,10.03,22.41,22.41S12.37,164.38,0,164.38l0,0v26.16l0,0 c12.38,0,22.41,10.03,22.41,22.41S12.37,235.36,0,235.36l0,0v26.17l0,0c12.38,0,22.41,10.03,22.41,22.41S12.37,306.35,0,306.35l0,0 v26.16l0,0c12.38,0,22.41,10.03,22.41,22.41S12.37,377.33,0,377.33l0,0v26.16l0,0c12.38,0,22.41,10.03,22.41,22.41 S12.37,448.31,0,448.31l0,0v26.17c0.74,0,1.47,0.02,2.21,0.09c0.72,0.09,1.45,0.19,2.17,0.33c1.43,0.29,2.84,0.72,4.19,1.29 c1.36,0.55,2.66,1.24,3.88,2.05c0.6,0.41,1.19,0.85,1.76,1.31c0.57,0.46,1.12,0.96,1.64,1.48c0.52,0.52,1.02,1.07,1.48,1.64 s0.9,1.16,1.31,1.76c0.81,1.22,1.5,2.52,2.05,3.88c0.57,1.34,1,2.76,1.28,4.19c0.16,0.72,0.26,1.45,0.33,2.17 c0.09,0.74,0.12,1.48,0.12,2.21l0,0h26.16l0,0c0-12.38,10.03-22.41,22.41-22.41s22.41,10.04,22.41,22.41l0,0h26.16l0,0 c0-12.38,10.04-22.41,22.41-22.41c12.38,0,22.41,10.04,22.41,22.41l0,0h26.16l0,0c0-12.38,10.04-22.41,22.43-22.41 c12.36,0,22.4,10.04,22.4,22.41l0,0h26.17l0,0c0-12.38,10.02-22.41,22.41-22.41c12.38,0,22.41,10.04,22.41,22.41l0,0h26.16l0,0 c0-12.38,10.04-22.41,22.41-22.41s22.41,10.04,22.41,22.41l0,0h26.16l0,0c0-12.38,10.04-22.41,22.41-22.41 c12.38,0,22.41,10.04,22.41,22.41l0,0h26.16l0,0c0-0.72,0.04-1.47,0.12-2.21c0.07-0.72,0.17-1.45,0.33-2.17 c0.28-1.43,0.71-2.85,1.28-4.19c0.55-1.36,1.24-2.66,2.05-3.88c0.41-0.6,0.85-1.19,1.31-1.76s0.96-1.12,1.48-1.64 c4.17-4.17,9.95-6.54,15.85-6.56L496.92,448.35L496.92,448.35z" style="fill: rgb(242, 238, 235);"/></g></svg>